<svg xmlns="http://www.w3.org/2000/svg" version="1.1" xmlns:xlink="http://www.w3.org/1999/xlink" xmlns:svgjs="http://svgjs.dev/svgjs" width="2000" height="671" viewBox="0 0 2000 671"><g transform="matrix(1,0,0,1,-1.2121212121212466,-1.5307088342922839)"><svg viewBox="0 0 396 133" data-background-color="#000000" preserveAspectRatio="xMidYMid meet" height="671" width="2000" xmlns="http://www.w3.org/2000/svg" xmlns:xlink="http://www.w3.org/1999/xlink"><g id="tight-bounds" transform="matrix(1,0,0,1,0.2400000000000091,0.3034042845914655)"><svg viewBox="0 0 395.52 132.3931914308171" height="132.3931914308171" width="395.52"><g><svg viewBox="0 0 455.699315850946 152.53713278303672" height="132.3931914308171" width="395.52"><g transform="matrix(1,0,0,1,0,21.081470594471796)"><svg viewBox="0 0 395.52 110.37419159409313" height="110.37419159409313" width="395.52"><g id="textblocktransform"><svg viewBox="0 0 395.52 110.37419159409313" height="110.37419159409313" width="395.52" id="textblock"><g><svg viewBox="0 0 395.52 110.37419159409313" height="110.37419159409313" width="395.52"><g transform="matrix(1,0,0,1,0,0)"><svg width="395.52" viewBox="1.65 -36.85 132.04 36.85" height="110.37419159409313" data-palette-color="#008dd5"><path d="M10.15 0L5.25 0 5.25-35.85 10.15-35.85 10.15-19.85 29.45-19.85 29.45-35.85 34.35-35.85 34.35 0 29.45 0 29.45-16.3 10.15-16.3 10.15 0ZM6.75 0L1.65 0 1.65-2.05Q1.65-2.5 1.85-2.78 2.05-3.05 2.45-3.1L2.45-3.1 6.2-3.9 6.75 0ZM13.75 0L8.65 0 9.2-3.9 12.95-3.1Q13.35-3.05 13.55-2.78 13.75-2.5 13.75-2.05L13.75-2.05 13.75 0ZM1.65-35.85L6.75-35.85 6.2-31.95 2.45-32.75Q2.05-32.85 1.85-33.1 1.65-33.35 1.65-33.8L1.65-33.8 1.65-35.85ZM8.65-35.85L13.75-35.85 13.75-33.8Q13.75-33.35 13.55-33.1 13.35-32.85 12.95-32.75L12.95-32.75 9.2-31.95 8.65-35.85ZM30.9 0L25.8 0 25.8-2.05Q25.8-2.5 26-2.78 26.2-3.05 26.6-3.1L26.6-3.1 30.35-3.9 30.9 0ZM37.95 0L32.85 0 33.4-3.9 37.15-3.1Q37.55-3.05 37.75-2.78 37.95-2.5 37.95-2.05L37.95-2.05 37.95 0ZM25.8-35.85L30.9-35.85 30.35-31.95 26.6-32.75Q26.2-32.85 26-33.1 25.8-33.35 25.8-33.8L25.8-33.8 25.8-35.85ZM32.85-35.85L37.95-35.85 37.95-33.8Q37.95-33.35 37.75-33.1 37.55-32.85 37.15-32.75L37.15-32.75 33.4-31.95 32.85-35.85ZM66.95 0L44.85 0 44.85-35.85 66.95-35.85 66.95-31.9 49.75-31.9 49.75-19.95 62.95-19.95 62.95-16.15 49.75-16.15 49.75-3.95 66.95-3.95 66.95 0ZM66.95-3.95L62.85-2.7 63.6-7.7Q63.7-8.15 63.97-8.33 64.25-8.5 64.65-8.5L64.65-8.5 66.95-8.5 66.95-3.95ZM63.6-28.15L62.85-33.15 66.95-31.9 66.95-27.35 64.65-27.35Q64.25-27.35 63.97-27.53 63.7-27.7 63.6-28.15L63.6-28.15ZM41.25-35.85L46.35-35.85 45.8-31.95 42.05-32.75Q41.65-32.85 41.45-33.1 41.25-33.35 41.25-33.8L41.25-33.8 41.25-35.85ZM46.35 0L41.25 0 41.25-2.05Q41.25-2.5 41.45-2.78 41.65-3.05 42.05-3.1L42.05-3.1 45.8-3.9 46.35 0ZM78.65 0L74.2 0 74.2-36.85 78.65-36.85 78.65 0ZM75.7 0L70.6 0 70.6-2.05Q70.6-2.5 70.8-2.78 71-3.05 71.4-3.1L71.4-3.1 75.15-3.9 75.7 0ZM82.25 0L77.15 0 77.7-3.9 81.45-3.1Q81.85-3.05 82.05-2.78 82.25-2.5 82.25-2.05L82.25-2.05 82.25 0ZM70.6-36.85L75.7-36.85 75.15-32.95 71.4-33.75Q71-33.85 70.8-34.1 70.6-34.35 70.6-34.8L70.6-34.8 70.6-36.85ZM93.24 0L88.39 0 88.39-35.85 93.24-35.85 93.24 0ZM89.89 0L84.79 0 84.79-2.05Q84.79-2.5 84.99-2.78 85.19-3.05 85.59-3.1L85.59-3.1 89.34-3.9 89.89 0ZM96.89 0L91.79 0 92.34-3.9 96.09-3.1Q96.49-3.05 96.69-2.78 96.89-2.5 96.89-2.05L96.89-2.05 96.89 0ZM84.79-35.85L89.89-35.85 89.34-31.95 85.59-32.75Q85.19-32.85 84.99-33.1 84.79-33.35 84.79-33.8L84.79-33.8 84.79-35.85ZM91.79-35.85L96.89-35.85 96.89-33.8Q96.89-33.35 96.69-33.1 96.49-32.85 96.09-32.75L96.09-32.75 92.34-31.95 91.79-35.85ZM105.24 0L100.74 0 113.09-18.4 101.24-35.85 106.09-35.85Q106.59-35.85 106.84-35.68 107.09-35.5 107.29-35.15L107.29-35.15 116.64-20.8Q116.74-21.05 116.87-21.35 116.99-21.65 117.19-21.95L117.19-21.95 125.99-35.05Q126.24-35.45 126.49-35.65 126.74-35.85 127.14-35.85L127.14-35.85 131.74-35.85 119.89-18.65 132.14 0 127.34 0Q126.79 0 126.52-0.3 126.24-0.6 125.99-0.95L125.99-0.95 116.39-15.95Q116.29-15.7 116.17-15.45 116.04-15.2 115.94-14.95L115.94-14.95 106.59-0.95Q106.39-0.6 106.09-0.3 105.79 0 105.24 0L105.24 0ZM107.64 0L103.39 0 103.39-2 107.64-2 107.64 0ZM129.29 0L125.04 0 125.04-2 129.29-2 129.29 0ZM108.29-34.6L104.54-34.6 104.54-35.85 108.29-35.85 108.29-34.6ZM128.99-34.6L125.24-34.6 125.24-35.85 128.99-35.85 128.99-34.6ZM99.74-35.85L104.84-35.85 104.29-31.95 100.54-32.75Q100.14-32.85 99.94-33.1 99.74-33.35 99.74-33.8L99.74-33.8 99.74-35.85ZM107.44-35.85L112.54-35.85 112.54-33.8Q112.54-33.35 112.34-33.1 112.14-32.85 111.74-32.75L111.74-32.75 107.99-31.95 107.44-35.85ZM120.74-35.85L125.84-35.85 125.29-31.95 121.54-32.75Q121.14-32.85 120.94-33.1 120.74-33.35 120.74-33.8L120.74-33.8 120.74-35.85ZM128.44-35.85L133.54-35.85 133.54-33.8Q133.54-33.35 133.34-33.1 133.14-32.85 132.74-32.75L132.74-32.75 128.99-31.95 128.44-35.85ZM104.29 0L99.19 0 99.19-2.05Q99.19-2.5 99.39-2.78 99.59-3.05 99.99-3.1L99.99-3.1 103.74-3.9 104.29 0ZM111.99 0L106.89 0 107.44-3.9 111.19-3.1Q111.59-3.05 111.79-2.78 111.99-2.5 111.99-2.05L111.99-2.05 111.99 0ZM133.69 0L128.59 0 129.14-3.9 132.89-3.1Q133.29-3.05 133.49-2.78 133.69-2.5 133.69-2.05L133.69-2.05 133.69 0ZM125.99 0L120.89 0 120.89-2.05Q120.89-2.5 121.09-2.78 121.29-3.05 121.69-3.1L121.69-3.1 125.44-3.9 125.99 0Z" opacity="1" transform="matrix(1,0,0,1,0,0)" fill="#008dd5" class="wordmark-text-0" data-fill-palette-color="primary" id="text-0"></path></svg></g></svg></g></svg></g></svg></g><g transform="matrix(1,0,0,1,421.5766976547671,0)"><svg viewBox="0 0 34.12261819617886 152.53713278303672" height="152.53713278303672" width="34.12261819617886"><g><svg xmlns="http://www.w3.org/2000/svg" xmlns:xlink="http://www.w3.org/1999/xlink" version="1.1" x="0" y="0" viewBox="41.205 0.681 21.994 98.319" enable-background="new 0 0 100 100" xml:space="preserve" height="152.53713278303672" width="34.12261819617886" class="icon-icon-0" data-fill-palette-color="accent" id="icon-0"><g fill="#008dd5" data-fill-palette-color="accent"><path d="M57.357 4.448C58.814 3.329 59.98 2.065 60.845 0.685H56.595C55.513 1.665 54.333 2.393 53.384 2.89A19.8 19.8 0 0 1 57 4.714C57.118 4.627 57.238 4.539 57.357 4.448" fill="#008dd5" data-fill-palette-color="accent"></path><path d="M57.859 95.697A14 14 0 0 0 56.533 94.758L56.537 94.756 56.362 94.652A16 16 0 0 0 54.488 93.68 17 17 0 0 0 52.484 92.923C52.468 92.919 52.453 92.911 52.437 92.906A17 17 0 0 1 49.315 91.152L49.165 91.045 49.14 91.026A15 15 0 0 1 47.904 90.036H47.918A11.2 11.2 0 0 1 46.024 87.843H46.002C45.377 86.873 44.927 85.759 44.791 84.507H60.149A7.8 7.8 0 0 1 58.999 87.843H47.37C48.042 88.71 48.86 89.443 49.659 90.036H57.142C56.059 91.024 54.87 91.755 53.916 92.253A19.8 19.8 0 0 1 57.532 94.079C57.65 93.991 57.771 93.905 57.889 93.813 61.363 91.146 63.199 87.66 63.199 83.724 63.199 79.623 61.246 76.149 57.859 73.426 56.619 72.428 55.295 71.75 54.314 71.336 53.718 71.066 53.07 70.816 52.376 70.607A17 17 0 0 1 49.21 68.835 4 4 0 0 0 49.057 68.729L49.033 68.71A15 15 0 0 1 47.796 67.72H47.811A11.2 11.2 0 0 1 45.917 65.529H45.896C45.269 64.556 44.819 63.445 44.684 62.193H60.042A7.8 7.8 0 0 1 58.892 65.529H47.263C47.937 66.395 48.755 67.127 49.552 67.72H57.037C55.951 68.706 54.766 69.439 53.81 69.937A20 20 0 0 1 57.425 71.761C57.545 71.675 57.663 71.587 57.784 71.495 61.255 68.831 63.093 65.343 63.093 61.407 63.093 57.306 61.251 53.762 57.769 51.163A18 18 0 0 0 54.248 49.129 81 81 0 0 0 52.376 48.31C52.362 48.303 52.345 48.298 52.329 48.293A17 17 0 0 1 49.21 46.538L49.057 46.431 49.033 46.412A15 15 0 0 1 47.796 45.423H47.811A11 11 0 0 1 45.917 43.231H45.896C45.269 42.259 44.819 41.148 44.684 39.895H60.042A7.8 7.8 0 0 1 58.892 43.231H47.263C47.937 44.098 48.755 44.83 49.552 45.423H57.037C55.951 46.41 54.766 47.142 53.81 47.642A19.7 19.7 0 0 1 57.425 49.465C57.545 49.38 57.663 49.291 57.784 49.199 61.255 46.534 63.093 43.046 63.093 39.111 63.093 35.01 61.251 31.468 57.769 28.868A17 17 0 0 0 55.812 27.608C54.829 27.023 53.473 26.286 51.951 25.826 51.936 25.822 51.92 25.815 51.906 25.81 51.785 25.762 50.369 25.177 48.784 24.054L48.633 23.948 48.608 23.929A15 15 0 0 1 47.372 22.938H47.385A11 11 0 0 1 45.491 20.746H45.47C44.843 19.774 44.393 18.663 44.258 17.41H59.617A7.8 7.8 0 0 1 58.467 20.746H46.837C47.51 21.612 48.328 22.345 49.125 22.938H56.611C55.525 23.926 54.339 24.658 53.384 25.156A20 20 0 0 1 56.999 26.98C57.117 26.894 57.237 26.806 57.356 26.714 60.83 24.049 62.665 20.561 62.665 16.627 62.665 12.526 60.713 9.053 57.324 6.329A14 14 0 0 0 56 5.389L56.003 5.387 55.829 5.283A16 16 0 0 0 53.956 4.312 16.5 16.5 0 0 0 51.905 3.538C51.784 3.49 50.368 2.905 48.783 1.784 48.733 1.747 48.682 1.712 48.632 1.677L48.607 1.658A15 15 0 0 1 47.386 0.681H43.083C44.453 2.799 46.352 4.348 48.001 5.401L47.991 5.407C49.074 6.08 50.461 6.842 51.942 7.39A15 15 0 0 1 54.38 8.549L54.436 8.583C54.884 8.845 55.351 9.149 55.816 9.5 55.898 9.562 55.975 9.625 56.053 9.688H56.027A11.4 11.4 0 0 1 58.136 11.88H58.165C58.444 12.279 58.684 12.692 58.885 13.12A6.7 6.7 0 0 1 59.47 14.845C59.495 14.969 59.521 15.092 59.542 15.216H44.33A8.06 8.06 0 0 1 45.707 11.88H56.753C56.054 11.074 55.172 10.328 54.15 9.688H47.817C47.896 9.625 47.973 9.562 48.055 9.5A15 15 0 0 1 50.528 7.999 25.6 25.6 0 0 1 46.972 6.061C46.825 6.165 46.678 6.271 46.528 6.381 43.047 8.982 41.205 12.524 41.205 16.625 41.205 23.588 47.085 27.354 49.965 28.781 50.711 29.177 51.523 29.56 52.367 29.872A15 15 0 0 1 54.802 31.031L54.861 31.066C55.308 31.327 55.776 31.631 56.242 31.983 56.324 32.044 56.4 32.108 56.478 32.171H56.451A11.5 11.5 0 0 1 58.562 34.363H58.589C58.869 34.762 59.109 35.176 59.31 35.602 59.589 36.169 59.789 36.748 59.894 37.328 59.919 37.451 59.946 37.575 59.966 37.7H44.756A8.05 8.05 0 0 1 46.133 34.364H57.177C56.48 33.559 55.596 32.812 54.577 32.172H48.243C48.323 32.109 48.399 32.045 48.48 31.984A15 15 0 0 1 50.955 30.482 25.5 25.5 0 0 1 47.399 28.546C47.252 28.648 47.104 28.755 46.955 28.866 43.474 31.466 41.631 35.008 41.631 39.109 41.631 44.726 45.457 48.262 48.448 50.17L48.416 50.187C49.499 50.861 50.885 51.623 52.367 52.171A15 15 0 0 1 54.802 53.33C54.823 53.342 54.841 53.351 54.861 53.365 55.308 53.626 55.776 53.929 56.242 54.281 56.324 54.343 56.4 54.407 56.478 54.469H56.451A11.5 11.5 0 0 1 58.562 56.662H58.589C58.869 57.06 59.109 57.474 59.31 57.901 59.589 58.469 59.789 59.047 59.894 59.627 59.919 59.75 59.946 59.873 59.966 59.997H44.756A8.06 8.06 0 0 1 46.133 56.662H57.177C56.48 55.857 55.596 55.109 54.577 54.469H48.243C48.323 54.407 48.399 54.344 48.48 54.281A15 15 0 0 1 50.955 52.781 25.4 25.4 0 0 1 47.399 50.843C47.252 50.946 47.104 51.054 46.955 51.161 43.474 53.761 41.631 57.305 41.631 61.405 41.631 68.466 47.678 72.239 50.51 73.621 51.13 73.933 51.791 74.233 52.473 74.485 53.319 74.799 54.122 75.182 54.869 75.62L54.909 75.643 54.967 75.679C55.413 75.94 55.883 76.243 56.347 76.594 56.43 76.656 56.506 76.719 56.586 76.783H56.556A11.3 11.3 0 0 1 58.667 78.975H58.695C58.976 79.372 59.215 79.787 59.416 80.213 59.695 80.78 59.893 81.359 60 81.939 60.026 82.063 60.052 82.187 60.072 82.31H44.861A8.05 8.05 0 0 1 46.238 78.975H57.284C56.587 78.167 55.702 77.421 54.68 76.783H48.347C48.427 76.719 48.503 76.655 48.585 76.594A15 15 0 0 1 51.06 75.093 26 26 0 0 1 47.504 73.157C47.356 73.26 47.207 73.366 47.06 73.476 43.577 76.076 41.735 79.619 41.735 83.719 41.735 89.322 45.542 92.855 48.531 94.765L48.52 94.771C49.603 95.443 50.991 96.205 52.472 96.754 53.318 97.067 54.121 97.45 54.868 97.888 54.882 97.897 54.894 97.905 54.908 97.912L54.966 97.944C55.412 98.208 55.882 98.511 56.346 98.864 56.404 98.905 56.456 98.949 56.513 98.993H60.966A16.4 16.4 0 0 0 57.859 95.697" fill="#008dd5" data-fill-palette-color="accent"></path><path d="M47.062 95.754C45.774 96.713 44.714 97.802 43.886 99H48.422C48.476 98.956 48.53 98.912 48.587 98.871A15 15 0 0 1 51.062 97.369 25 25 0 0 1 47.506 95.431C47.358 95.535 47.209 95.641 47.062 95.754" fill="#008dd5" data-fill-palette-color="accent"></path></g></svg></g></svg></g></svg></g><defs></defs></svg><rect width="395.52" height="132.3931914308171" fill="none" stroke="none" visibility="hidden"></rect></g></svg></g></svg>